<mxfile host="app.diagrams.net" modified="2022-03-04T06:47:08.861Z" agent="5.0 (Windows)" etag="2H3dx193KPfkfpzJ5OL7" version="16.6.5" type="github">
  <diagram id="wRAZP_xEOzdhKxiX8Wo9" name="Page-1">
    <mxGraphModel dx="1422" dy="752" grid="1" gridSize="10" guides="1" tooltips="1" connect="1" arrows="1" fold="1" page="1" pageScale="1" pageWidth="827" pageHeight="1169" math="0" shadow="0">
      <root>
        <mxCell id="0" />
        <mxCell id="1" parent="0" />
        <mxCell id="ce0yXnYrjxzOvciauyPj-1" value="Test diagram" style="rounded=0;whiteSpace=wrap;html=1;" vertex="1" parent="1">
          <mxGeometry x="350" y="350" width="120" height="60" as="geometry" />
        </mxCell>
      </root>
    </mxGraphModel>
  </diagram>
</mxfile>
